<?xml version="1.0" encoding="utf-8"?>
<!-- Generator: Adobe Illustrator 16.0.0, SVG Export Plug-In . SVG Version: 6.00 Build 0)  -->
<!DOCTYPE svg PUBLIC "-//W3C//DTD SVG 1.1//EN" "http://www.w3.org/Graphics/SVG/1.1/DTD/svg11.dtd">
<svg version="1.1" id="Layer_1" xmlns="http://www.w3.org/2000/svg" xmlns:xlink="http://www.w3.org/1999/xlink" x="0px" y="0px"
	 width="198.43px" height="17.01px" viewBox="0 0 198.43 17.01" enable-background="new 0 0 198.43 17.01" xml:space="preserve">
<g>
	<polygon points="6.139,11.896 6.139,14.61 0,14.61 0,11.896 1.54,11.896 1.54,5.204 0.122,5.204 0.122,2.507 6.018,2.507 
		6.018,5.204 4.6,5.204 4.6,11.896 	"/>
	<polygon points="11.473,8.662 11.473,14.61 8.274,14.61 8.274,2.454 9.398,2.454 15.519,8.438 15.519,2.507 18.683,2.507 
		18.683,14.626 17.576,14.626 	"/>
	<polygon points="20.267,5.273 20.267,2.507 29.258,2.507 29.258,5.273 26.301,5.273 26.301,14.61 23.242,14.61 23.242,5.273 	"/>
	<polygon points="38.405,5.273 33.927,5.273 33.927,6.985 38.042,6.985 38.042,9.733 33.927,9.733 33.927,11.86 38.561,11.86 
		38.561,14.61 30.85,14.61 30.85,2.507 38.405,2.507 	"/>
	<path d="M51.332,14.161v0.449h-3.458l-2.075-3.563h-1.608v3.563h-3.095V2.507h5.309c4.755,0.018,5.619,5.74,2.56,7.815
		L51.332,14.161z M46.404,5.273c-0.727-0.018-1.486,0-2.213,0v2.99h2.213C48.081,8.264,48.167,5.291,46.404,5.273"/>
	<path d="M60.684,13.089h-4.771l-0.709,1.521h-3.026v-0.449l5.447-11.81h1.331l5.464,11.81v0.449h-3.026L60.684,13.089z
		 M58.281,7.244l-1.349,3.182h2.731L58.281,7.244z"/>
	<path d="M70.821,2.368c2.508,0,5.222,1.366,5.688,4.6h-3.043c-0.432-1.228-1.349-1.781-2.646-1.781
		c-1.815,0-3.009,1.366-3.009,3.371c0,1.781,1.176,3.337,3.009,3.354c1.314,0,2.369-0.656,2.697-1.953h3.043
		c-0.45,3.423-3.165,4.771-5.74,4.771c-3.077,0.019-6.189-2.058-6.208-6.172C64.63,4.443,67.743,2.368,70.821,2.368"/>
	<polygon points="77.571,5.273 77.571,2.507 86.563,2.507 86.563,5.273 83.605,5.273 83.605,14.61 80.545,14.61 80.545,5.273 	"/>
	<polygon points="93.749,11.896 93.749,14.61 87.61,14.61 87.61,11.896 89.149,11.896 89.149,5.204 87.731,5.204 87.731,2.507 
		93.627,2.507 93.627,5.204 92.209,5.204 92.209,11.896 	"/>
	<polygon points="100.508,9.371 100.594,9.371 103.36,2.507 106.334,2.507 106.334,2.975 101.199,14.748 99.885,14.748 
		94.698,2.975 94.698,2.507 97.672,2.507 	"/>
	<polygon points="115.433,5.273 110.955,5.273 110.955,6.985 115.07,6.985 115.07,9.733 110.955,9.733 110.955,11.86 115.588,11.86 
		115.588,14.61 107.878,14.61 107.878,2.507 115.433,2.507 	"/>
</g>
<g>
	<path d="M142.735,2.352c2.438,0.017,4.979,1.279,5.567,4.288h-3.043c-0.501-1.038-1.296-1.453-2.524-1.453
		c-1.954,0-3.009,1.521-3.009,3.371c0,2.007,1.177,3.32,3.009,3.32c1.244,0,2.041-0.328,2.595-1.486h-2.576v-2.68h5.723
		c0.069,1.209,0.069,2.368-0.346,3.543c-0.864,2.525-3.164,3.493-5.396,3.493c-3.076,0-6.189-2.058-6.207-6.19
		C136.545,4.426,139.658,2.352,142.735,2.352"/>
	<path d="M160.986,14.161v0.449h-3.459l-2.074-3.563h-1.607v3.563h-3.095V2.507h5.309c4.754,0.018,5.619,5.74,2.56,7.815
		L160.986,14.161z M156.059,5.273c-0.727-0.018-1.487,0-2.214,0v2.99h2.214C157.735,8.264,157.821,5.291,156.059,5.273"/>
	<path d="M161.91,8.575c0-8.367,12.412-8.367,12.412,0C174.323,16.961,161.91,16.961,161.91,8.575 M171.16,8.575
		c0-4.356-6.068-4.356-6.068,0C165.092,12.967,171.16,12.967,171.16,8.575"/>
	<path d="M182.983,10.528V2.507h2.991v8.074c0,2.663-2.334,4.202-4.823,4.202c-2.474,0-4.807-1.539-4.807-4.202V2.507h2.957v8.021
		c0,0.986,0.95,1.471,1.85,1.471C182.051,11.999,182.983,11.515,182.983,10.528"/>
	<path d="M188.756,14.61V2.507h5.325c5.792,0.018,5.792,9.008,0,9.008h-2.23v3.096H188.756L188.756,14.61z M194.063,5.273
		c-0.727-0.018-1.504,0-2.213,0v3.458h2.213C195.758,8.731,195.861,5.291,194.063,5.273"/>
</g>
<path fill="#73BE00" d="M134.301,8.504c0,4.267-3.46,7.728-7.729,7.728c-4.268,0-7.727-3.461-7.727-7.728
	c0-4.268,3.459-7.728,7.727-7.728C130.841,0.776,134.301,4.236,134.301,8.504 M130.668,8.879c0,0-4.442-3.854-6.483-5.839
	l-0.151,8.725l2.357-1.843l1.901,4.372l1.586-0.689L128.006,9.3L130.668,8.879z"/>
</svg>
